#!OML:ASF X:\für Bonn\!DataBase\2005_08_12_Daniel\c3d\Daniel.ASF
:FULLY-SPECIFIED
:DEGREES
1
root 11.135 16.038 0.861673 317.998 81.7079 325.091
lowerback 27.8325 -1.81271 4.62016
upperback 6.66795 -0.460107 0.315812
thorax -7.9594 -0.0548039 -2.1875
lowerneck -5.54401 3.09355 -2.31213
upperneck -4.91054 4.26102 -4.70212
head -0.536315 2.23961 -1.00934
rclavicle -1.54058e-014 -1.35174e-014
rhumerus -43.7011 5.45219 -94.2281
rradius 50.6392
rwrist 6.37957
rhand -34.0273 29.1184
rfingers 7.12502
rthumb -7.20588 -0.738873
lclavicle -1.54058e-014 -1.35174e-014
lhumerus 135.241 176.387 272.719
lradius 65.3799
lwrist 12.0219
lhand -17.1957 -15.0379
lfingers 7.12502
lthumb 9.04648 14.7481
rfemur -25.5265 1.55598 25.4537
rtibia 61.7151
rfoot -21.5708 2.16227
rtoes -12.0979
lfemur -27.3424 -3.44476 -14.363
ltibia 72.2466
lfoot -28.9782 1.7296
ltoes -14.27
2
root 11.3406 15.8757 0.859366 317.259 81.3292 324.46
lowerback 28.3524 -1.81265 4.87654
upperback 6.54492 -0.343711 0.408893
thorax -8.34596 -0.0138145 -2.27053
lowerneck -5.4733 3.02779 -2.45843
upperneck -6.08472 4.15336 -4.67018
head -0.915402 2.23046 -0.997031
rclavicle -1.28216e-014 8.94531e-015
rhumerus -43.4536 3.85575 -93.6349
rradius 49.1057
rwrist 7.50276
rhand -33.823 27.7394
rfingers 7.12502
rthumb -7.00872 -2.12457
lclavicle -1.28216e-014 8.94531e-015
lhumerus 134.907 174.603 272.455
lradius 63.8702
lwrist 11.2227
lhand -17.509 -15.1518
lfingers 7.12502
lthumb 8.74419 14.647
rfemur -25.9266 1.57982 25.7852
rtibia 64.0757
rfoot -23.603 2.32522
rtoes -12.1506
lfemur -27.3424 -3.20394 -14.2748
ltibia 74.4326
lfoot -31.1854 2.08453
ltoes -13.881
3
root 11.5527 15.7651 0.857982 316.768 80.9716 324.03
lowerback 28.6249 -1.78434 5.13374
upperback 6.41687 -0.209202 0.489003
thorax -8.61485 0.0347668 -2.3757
lowerneck -5.36915 2.94547 -2.64414
upperneck -7.04817 4.0317 -4.60136
head -1.24044 2.20913 -0.965521
rclavicle 1.39149e-014 -6.95746e-015
rhumerus -43.3094 2.30308 -93.1259
rradius 48.3611
rwrist 8.39776
rhand -33.4163 26.2307
rfingers 7.12502
rthumb -6.61613 -3.64597
lclavicle 1.39149e-014 -6.95746e-015
lhumerus 134.087 173.005 272.218
lradius 63.015
lwrist 10.0462
lhand -17.5698 -15.238
lfingers 7.12502
lthumb 8.68553 14.5633
rfemur -25.9846 1.56511 26.0767
rtibia 65.8329
rfoot -25.2115 2.46294
rtoes -12.2352
lfemur -26.93 -3.03238 -14.2811
ltibia 75.9565
lfoot -33.014 2.73472
ltoes -14.2448
4
root 11.7717 15.658 0.856183 316.509 80.6054 323.849
lowerback 28.7758 -1.75191 5.36839
upperback 6.25457 -0.0857708 0.57114
thorax -8.86333 0.0752061 -2.46198
lowerneck -5.30098 2.8814 -2.87657
upperneck -7.7154 3.94556 -4.51625
head -1.47031 2.1965 -0.915242
rclavicle -1.65985e-014 -7.35503e-015
rhumerus -43.3606 1.08794 -92.7738
rradius 48.4166
rwrist 8.75416
rhand -32.912 24.8591
rfingers 7.12502
rthumb -6.12924 -5.03223
lclavicle -1.65985e-014 -7.35503e-015
lhumerus 133.249 171.786 272.085
lradius 62.6929
lwrist 8.94426
lhand -17.2348 -14.9727
lfingers 7.12502
lthumb 9.0088 14.8149
rfemur -25.8149 1.5701 26.3322
rtibia 67.223
rfoot -26.5307 2.58326
rtoes -12.4427
lfemur -26.3091 -2.84411 -14.3308
ltibia 77.1179
lfoot -34.5159 3.50241
ltoes -15.0255
5
root 11.9967 15.5737 0.853315 316.328 80.2873 323.713
lowerback 28.75 -1.71928 5.59227
upperback 6.05846 0.0194357 0.652768
thorax -9.06441 0.104659 -2.5357
lowerneck -5.14477 2.83513 -3.05913
upperneck -8.16773 3.87547 -4.51261
head -1.64573 2.18482 -0.896086
rclavicle -1.2921e-015 1.78906e-015
rhumerus -43.5021 0.301123 -92.6305
rradius 49.1056
rwrist 8.4223
rhand -32.5296 23.822
rfingers 7.12502
rthumb -5.7601 -6.07969
lclavicle -1.2921e-015 1.78906e-015
lhumerus 132.493 171.157 272.119
lradius 62.8134
lwrist 8.21372
lhand -16.6067 -14.4022
lfingers 7.12502
lthumb 9.61484 15.3584
rfemur -25.3921 1.57201 26.5142
rtibia 68.2187
rfoot -27.5625 2.73434
rtoes -12.6335
lfemur -25.5344 -2.70389 -14.4143
ltibia 77.9122
lfoot -35.6898 4.21554
ltoes -15.4889
6
root 12.2308 15.5163 0.849752 316.394 79.9809 323.806
lowerback 28.5229 -1.67985 5.82629
upperback 5.84978 0.115034 0.70603
thorax -9.1802 0.128572 -2.64269
lowerneck -4.95841 2.80739 -3.2191
upperneck -8.27413 3.83057 -4.5162
head -1.71516 2.17209 -0.876722
rclavicle 1.31198e-014 -1.0138e-014
rhumerus -43.645 0.143337 -92.7948
rradius 50.1586
rwrist 7.25452
rhand -32.4883 23.1883
rfingers 7.12502
rthumb -5.72014 -6.71449
lclavicle 1.31198e-014 -1.0138e-014
lhumerus 131.805 171.119 272.308
lradius 63.2706
lwrist 8.0256
lhand -15.6583 -13.7592
lfingers 7.12502
lthumb 10.5298 15.9571
rfemur -24.7297 1.55182 26.6271
rtibia 68.855
rfoot -28.352 2.93499
rtoes -12.9814
lfemur -24.5835 -2.56767 -14.5324
ltibia 78.4009
lfoot -36.6132 4.84793
ltoes -15.7109
7
root 12.476 15.492 0.847496 316.664 79.7163 324.118
lowerback 28.0677 -1.61668 6.02336
upperback 5.66465 0.209196 0.752029
thorax -9.15443 0.156075 -2.73431
lowerneck -4.89426 2.78739 -3.32387
upperneck -7.92564 3.80417 -4.63142
head -1.61428 2.15083 -0.890129
rclavicle -8.99501e-015 1.35174e-014
rhumerus -44.0195 0.0462832 -93.0229
rradius 51.5708
rwrist 5.8567
rhand -32.6762 23.2331
rfingers 7.12502
rthumb -5.9016 -6.66469
lclavicle -8.99501e-015 1.35174e-014
lhumerus 131.129 171.486 272.619
lradius 64.0262
lwrist 8.18154
lhand -14.3834 -13.0824
lfingers 7.12502
lthumb 11.7594 16.5675
rfemur -23.7641 1.55325 26.663
rtibia 69.1036
rfoot -28.9383 3.05901
rtoes -13.6974
lfemur -23.445 -2.44922 -14.6864
ltibia 78.5749
lfoot -37.2429 5.27996
ltoes -15.6409
8
root 12.7324 15.4996 0.844323 317.073 79.4796 324.551
lowerback 27.3683 -1.55245 6.21807
upperback 5.48756 0.279232 0.78846
thorax -8.99643 0.175135 -2.82439
lowerneck -4.92205 2.8109 -3.35982
upperneck -7.26807 3.84438 -4.8215
head -1.39682 2.14905 -0.930523
rclavicle -1.08338e-014 1.8487e-014
rhumerus -44.6643 0.116049 -93.3204
rradius 53.1754
rwrist 4.25833
rhand -32.9822 23.8986
rfingers 7.12502
rthumb -6.19705 -5.99075
lclavicle -1.08338e-014 1.8487e-014
lhumerus 130.265 171.985 272.948
lradius 65.025
lwrist 8.59607
lhand -12.7873 -12.661
lfingers 7.12502
lthumb 13.2982 16.8948
rfemur -22.5816 1.52789 26.6062
rtibia 68.9684
rfoot -29.2037 3.26761
rtoes -14.433
lfemur -22.1717 -2.273 -14.88
ltibia 78.4532
lfoot -37.5547 5.66071
ltoes -15.6446
9
root 12.9973 15.5435 0.841473 317.642 79.2593 325.168
lowerback 26.5171 -1.47989 6.39243
upperback 5.32944 0.337006 0.811276
thorax -8.73764 0.192397 -2.91169
lowerneck -4.8696 2.82259 -3.39403
upperneck -6.55661 3.86831 -5.02045
head -1.17781 2.137 -0.974713
rclavicle 9.44227e-016 1.21259e-014
rhumerus -45.4755 0.282072 -93.6625
rradius 54.9074
rwrist 2.8066
rhand -33.26 24.806
rfingers 7.12502
rthumb -6.46519 -5.07532
lclavicle 9.44227e-016 1.21259e-014
lhumerus 129.232 172.607 273.231
lradius 66.1369
lwrist 9.21664
lhand -11.0898 -12.5456
lfingers 7.12502
lthumb 14.934 16.8961
rfemur -21.1922 1.50671 26.476
rtibia 68.5194
rfoot -29.0909 3.50663
rtoes -15.0436
lfemur -20.7625 -1.98417 -15.0806
ltibia 78.0639
lfoot -37.385 5.9324
ltoes -15.8335
10
root 13.2691 15.6235 0.839379 318.116 79.0534 325.722
lowerback 25.616 -1.41089 6.59899
upperback 5.15099 0.389984 0.818357
thorax -8.47172 0.206186 -3.03182
lowerneck -4.74783 2.83607 -3.44269
upperneck -5.77118 3.89837 -5.16067
head -0.950466 2.12463 -0.998726
rclavicle -2.83268e-015 2.40529e-014
rhumerus -46.3572 0.532627 -94.0205
rradius 56.6186
rwrist 1.60186
rhand -33.488 25.7579
rfingers 7.12502
rthumb -6.68532 -4.1166
lclavicle -2.83268e-015 2.40529e-014
lhumerus 128.144 173.231 273.401
lradius 67.2986
lwrist 9.75465
lhand -9.21189 -12.5263
lfingers 7.12502
lthumb 16.7425 16.7718
rfemur -19.591 1.48536 26.3266
rtibia 67.6985
rfoot -28.5111 3.71231
rtoes -15.622
lfemur -19.2094 -1.62802 -15.218
ltibia 77.3268
lfoot -36.538 6.02114
ltoes -16.1198
